<svg xmlns="http://www.w3.org/2000/svg" viewBox="0 0 1500 800">
    <!-- Header and Navigation elements remain the same -->
    <rect x="0" y="0" width="1500" height="50" fill="#f8f9fa"/>
    <text x="20" y="30" font-family="Arial" font-size="20" font-weight="bold">MalariaCR</text>
    
    <!-- Navigation -->
    <rect x="150" y="10" width="100" height="30" rx="5" fill="#e9ecef"/>
    <text x="170" y="30" font-family="Arial" font-size="14">Dashboard</text>
    <rect x="260" y="10" width="150" height="30" rx="5" fill="#007bff"/>
    <text x="280" y="30" font-family="Arial" font-size="14" fill="white">Malaria Case Report</text>

    <!-- Title and Filters section remain the same -->
    <text x="20" y="80" font-family="Arial" font-size="24" font-weight="bold">Malaria Case Report</text>
    
    <!-- Table Headers -->
    <g transform="translate(0,200)">
        <!-- Headers remain the same -->
        <rect x="20" y="0" width="1460" height="40" fill="#f8f9fa"/>
        <text x="30" y="25" font-family="Arial" font-size="12" font-weight="bold">Test Date</text>
        <text x="120" y="25" font-family="Arial" font-size="12" font-weight="bold">Name</text>
        <text x="220" y="25" font-family="Arial" font-size="12" font-weight="bold">Age</text>
        <text x="270" y="25" font-family="Arial" font-size="12" font-weight="bold">Sex</text>
        <text x="320" y="25" font-family="Arial" font-size="12" font-weight="bold">Preg</text>
        <text x="380" y="25" font-family="Arial" font-size="12" font-weight="bold">Address</text>
        <text x="480" y="25" font-family="Arial" font-size="12" font-weight="bold">RDT</text>
        <text x="530" y="25" font-family="Arial" font-size="12" font-weight="bold">MP</text>
        <text x="580" y="25" font-family="Arial" font-size="12" font-weight="bold">Symptoms</text>
        <text x="680" y="25" font-family="Arial" font-size="12" font-weight="bold">ACT24</text>
        <text x="730" y="25" font-family="Arial" font-size="12" font-weight="bold">ACT18</text>
        <text x="780" y="25" font-family="Arial" font-size="12" font-weight="bold">ACT12</text>
        <text x="830" y="25" font-family="Arial" font-size="12" font-weight="bold">ACT6</text>
        <text x="880" y="25" font-family="Arial" font-size="12" font-weight="bold">CQ</text>
        <text x="930" y="25" font-family="Arial" font-size="12" font-weight="bold">PQ</text>
        <text x="980" y="25" font-family="Arial" font-size="12" font-weight="bold">Refer</text>
        <text x="1030" y="25" font-family="Arial" font-size="12" font-weight="bold">Death</text>
        <text x="1080" y="25" font-family="Arial" font-size="12" font-weight="bold">Rx</text>
        <text x="1130" y="25" font-family="Arial" font-size="12" font-weight="bold">Travel</text>
        <text x="1180" y="25" font-family="Arial" font-size="12" font-weight="bold">Job</text>
        <text x="1230" y="25" font-family="Arial" font-size="12" font-weight="bold">Volunteer Name</text>
    </g>

    <!-- Table Rows with Icons -->
    <g transform="translate(0,240)">
        <!-- Row 1 (Positive Case) -->
        <rect x="20" y="0" width="1460" height="40" fill="#ffffff"/>
        <text x="30" y="25" font-family="Arial" font-size="12">28-12-2024</text>
        <text x="120" y="25" font-family="Arial" font-size="12">Kyaw Soe</text>
        <text x="220" y="25" font-family="Arial" font-size="12">35</text>
        <text x="270" y="25" font-family="Arial" font-size="12">M</text>
        <!-- Pregnancy Negative Icon -->
        <circle cx="330" cy="20" r="8" stroke="#ff4444" stroke-width="2" fill="none"/>
        <line x1="325" y1="20" x2="335" y2="20" stroke="#ff4444" stroke-width="2"/>
        <text x="380" y="25" font-family="Arial" font-size="12">Lanmadaw</text>
        <!-- RDT Positive Icon -->
        <circle cx="490" cy="20" r="8" fill="#28a745"/>
        <text x="530" y="25" font-family="Arial" font-size="12">P.f</text>
        <text x="580" y="25" font-family="Arial" font-size="12">Moderate</text>
        <!-- Add values for remaining columns -->
        <text x="680" y="25" font-family="Arial" font-size="12">2</text>
        <text x="730" y="25" font-family="Arial" font-size="12">21</text>
        <text x="1230" y="25" font-family="Arial" font-size="12">Nway Nway Win</text>

        <!-- Row 2 -->
        <rect x="20" y="40" width="1460" height="40" fill="#f8f9fa"/>
        <text x="30" y="65" font-family="Arial" font-size="12">28-12-2024</text>
        <text x="120" y="65" font-family="Arial" font-size="12">Thandar Soe</text>
        <text x="220" y="65" font-family="Arial" font-size="12">28</text>
        <text x="270" y="65" font-family="Arial" font-size="12">F</text>
        <!-- Pregnancy Negative Icon -->
        <circle cx="330" cy="60" r="8" stroke="#ff4444" stroke-width="2" fill="none"/>
        <line x1="325" y1="60" x2="335" y2="60" stroke="#ff4444" stroke-width="2"/>
        <text x="380" y="65" font-family="Arial" font-size="12">Sanchaung</text>
        <!-- RDT Negative Icon -->
        <circle cx="490" cy="60" r="8" stroke="#28a745" stroke-width="2" fill="none"/>
        <text x="1230" y="65" font-family="Arial" font-size="12">Aung Kyaw Myint</text>

        <!-- Row 3 -->
        <rect x="20" y="80" width="1460" height="40" fill="#ffffff"/>
        <text x="30" y="105" font-family="Arial" font-size="12">27-12-2024</text>
        <text x="120" y="105" font-family="Arial" font-size="12">Aye Aye Khaing</text>
        <text x="220" y="105" font-family="Arial" font-size="12">42</text>
        <text x="270" y="105" font-family="Arial" font-size="12">F</text>
        <!-- Pregnancy Negative Icon -->
        <circle cx="330" cy="100" r="8" stroke="#ff4444" stroke-width="2" fill="none"/>
        <line x1="325" y1="100" x2="335" y2="100" stroke="#ff4444" stroke-width="2"/>
        <text x="380" y="105" font-family="Arial" font-size="12">Bahan</text>
        <!-- RDT Negative Icon -->
        <circle cx="490" cy="100" r="8" stroke="#28a745" stroke-width="2" fill="none"/>
        <text x="1230" y="105" font-family="Arial" font-size="12">Khin Myo Thu</text>
    </g>

    <!-- Pagination -->
    <g transform="translate(0,500)">
        <rect x="20" y="0" width="1460" height="40" fill="#f8f9fa"/>
        <text x="30" y="25" font-family="Arial" font-size="12">Showing 1 to 10 of 2,057 results</text>
        <text x="1200" y="25" font-family="Arial" font-size="12">1 2 3 4 ... 205 206</text>
    </g>
</svg>
